<svg version="1.1" id="Layer_1" xmlns="http://www.w3.org/2000/svg" xmlns:xlink="http://www.w3.org/1999/xlink" x="0px" y="0px"
	 width="100%" viewBox="0 0 803 188" enable-background="new 0 0 803 188" xml:space="preserve">
<path fill="#080506" opacity="1.000000" stroke="none" 
	d="
M1.000000,113.000000 
	C1.000000,100.645775 1.000000,88.291542 1.372461,75.336914 
	C2.211876,72.459236 2.650430,70.175720 3.150275,67.905701 
	C7.160460,49.693634 15.002494,33.731537 29.994358,21.908487 
	C50.911072,5.412918 75.272903,2.522084 100.113113,6.875738 
	C134.853348,12.964536 156.196091,35.320396 166.813553,68.332756 
	C168.650085,74.043022 169.354095,80.117523 170.801315,87.083107 
	C183.292114,65.319084 202.226776,57.393791 225.471527,55.841793 
	C249.416260,54.243050 267.711975,63.216145 282.179840,83.611679 
	C285.654846,67.803146 296.065674,61.763107 308.828156,58.565613 
	C312.527069,57.638893 316.332825,56.914757 320.128845,56.639626 
	C333.594849,55.663605 346.984009,55.261280 360.296631,58.849873 
	C369.545929,61.343143 375.563629,67.663330 382.091125,73.894760 
	C387.470001,79.029640 391.823517,84.599670 393.243988,91.800041 
	C394.718140,99.272232 395.537476,106.909241 396.100281,114.514343 
	C396.551819,120.615463 396.191589,126.776657 396.191589,133.357819 
	C398.805664,133.519684 401.045074,133.658325 403.538269,133.812698 
	C403.776581,131.732651 403.973175,130.016815 404.211090,127.940125 
	C408.052856,127.940125 411.531586,127.940125 415.018677,128.320755 
	C415.688141,130.580307 416.133453,132.578293 417.082397,134.298416 
	C417.774109,135.552277 419.242371,137.423965 420.170288,137.318085 
	C423.959106,136.885849 425.027557,139.309402 426.130005,142.339966 
	C427.349548,145.801254 428.598022,148.877899 429.779724,151.979996 
	C431.640045,156.863754 434.444000,160.789474 439.844513,162.158646 
	C447.519226,164.104385 455.233795,164.854355 462.932465,162.431091 
	C466.300110,161.371078 469.338501,159.737259 469.819641,156.526596 
	C455.673615,150.793457 441.899078,145.210892 427.994873,139.336472 
	C423.563568,135.056854 419.261932,131.069077 414.866882,126.754776 
	C405.957397,117.964554 403.450256,107.387474 403.934082,95.561302 
	C404.866669,72.765892 422.614044,57.707241 443.260986,56.096428 
	C453.944672,55.262917 464.075104,57.092453 473.790588,61.504566 
	C476.015533,62.514992 478.659912,63.387264 479.676056,60.409225 
	C482.108459,53.280636 487.536072,55.010147 492.989624,55.193562 
	C493.222870,58.326946 493.436188,61.192413 493.657379,64.163620 
	C494.878723,64.231796 495.720703,64.429672 496.507629,64.298225 
	C501.574890,63.451797 503.280426,65.475922 502.898956,70.583717 
	C502.466888,76.369919 502.831146,82.215584 502.540253,88.312912 
	C502.231293,94.488411 502.231293,100.386406 502.231293,106.284393 
	C502.308105,106.280533 502.384918,106.276665 502.461731,106.272804 
	C502.917175,100.113113 503.372650,93.953415 503.850891,87.415688 
	C509.645050,67.981255 523.848816,57.064510 543.675354,56.001839 
	C553.710388,55.463974 563.151184,57.390335 572.264954,61.377567 
	C574.673767,62.431412 577.347046,63.475578 578.530334,60.164799 
	C581.074829,53.045311 586.514282,55.065147 591.800171,55.269218 
	C592.008179,58.438560 592.195862,61.297813 592.414429,64.627968 
	C593.519470,64.123947 594.554810,63.838718 594.539429,63.631546 
	C594.081482,57.466534 598.384949,58.428349 602.114502,58.473358 
	C605.109802,58.509506 608.105835,58.480652 611.101562,58.480648 
	C616.118042,58.480644 621.134521,58.480648 627.445923,58.480648 
	C622.596558,53.643723 618.999878,49.798187 615.133606,46.246014 
	C600.893127,33.162300 605.478333,9.309496 623.576782,2.658935 
	C625.054810,2.115813 626.525757,1.553437 628.000000,0.999998 
	C632.356873,1.000000 636.713806,1.000000 641.707581,1.342298 
	C649.090637,2.578702 654.558289,5.568362 658.491577,11.265079 
	C659.404358,12.587128 660.622253,13.832487 661.965637,14.702475 
	C674.739685,22.974930 675.057617,45.509140 664.545654,54.787525 
	C660.032654,58.770939 660.208923,62.569973 660.754272,67.561356 
	C663.745728,67.788330 666.611145,68.005730 669.948242,68.258919 
	C669.948242,79.821945 669.948242,90.917885 669.614868,102.270515 
	C669.404297,111.505089 669.527161,120.482979 669.652832,129.837555 
	C669.773071,132.477097 669.890320,134.739929 669.924072,137.464813 
	C671.173523,146.640091 666.722046,155.973892 672.962952,164.272614 
	C674.050293,165.718536 673.117004,168.684036 673.117004,170.872223 
	C682.566040,171.770538 682.352966,171.776642 682.603577,180.527023 
	C682.717529,184.508728 681.529114,185.677536 677.559143,185.645309 
	C656.423157,185.473618 635.285095,185.565643 614.147705,185.565048 
	C605.624878,185.564804 605.629028,185.562973 605.126099,177.368866 
	C605.108704,177.084824 604.832642,176.816681 604.590027,176.386810 
	C599.969421,175.664795 595.664612,175.876144 591.789368,179.403824 
	C589.759766,181.251389 587.084290,182.617249 584.468079,183.545929 
	C578.723877,185.584991 572.831726,187.207458 567.000000,189.000000 
	C562.643127,189.000000 558.286194,189.000000 553.215637,188.809372 
	C547.159485,186.883865 541.686035,185.467911 536.505371,183.339233 
	C528.765442,180.159012 528.859009,179.950424 522.990662,186.993912 
	C522.389954,187.714951 521.666504,188.333755 521.000000,189.000000 
	C518.629456,189.000000 516.258850,189.000000 513.345520,188.591385 
	C512.338135,185.201218 511.873505,182.219681 511.337646,178.780945 
	C508.485138,178.780945 505.742004,178.780945 502.805359,178.780945 
	C502.625824,175.989578 502.476562,173.668945 502.263336,170.354492 
	C493.946106,180.819305 484.173615,186.464066 471.739502,187.142624 
	C470.795349,187.194153 469.911743,188.354874 469.000000,189.000000 
	C464.643097,189.000000 460.286194,189.000000 455.179504,188.874832 
	C449.279388,187.144394 444.031677,185.794968 438.999390,183.879532 
	C429.111053,180.115799 429.159760,179.985001 423.034760,188.511963 
	C422.953735,188.624756 423.008575,188.835159 423.000000,189.000000 
	C420.299988,189.000000 417.599976,189.000000 414.380554,188.591217 
	C413.490112,185.161942 413.119110,182.141449 412.652191,178.339844 
	C409.840973,179.145340 407.337128,179.625214 405.025818,180.574097 
	C400.105103,182.594238 395.266663,184.819763 390.438263,187.055573 
	C389.521881,187.479904 388.807556,188.340607 388.000000,189.000000 
	C383.643097,189.000000 379.286194,189.000000 374.397400,188.585510 
	C364.617523,187.532043 356.559631,184.004791 349.563751,177.663696 
	C344.485687,183.276031 338.694763,186.737656 331.299072,187.099640 
	C330.503601,187.138580 329.764984,188.338593 329.000000,189.000000 
	C324.975464,189.000000 320.950897,189.000000 316.418518,188.579803 
	C306.981171,187.563705 299.541595,183.673126 292.977295,177.820969 
	C288.544891,173.869431 284.085693,169.947968 279.672791,166.043396 
	C271.925995,178.503479 259.800446,185.828308 243.990799,187.127365 
	C242.949600,187.212906 241.994919,188.351318 241.000000,189.000000 
	C236.310745,189.000000 231.621490,189.000000 226.465057,188.591309 
	C225.224014,187.943909 224.464081,187.565399 223.674286,187.486740 
	C197.352280,184.865143 181.657639,168.183716 169.769470,146.595337 
	C168.267548,143.867905 167.633377,140.662613 166.198044,136.529388 
	C162.634186,148.324112 157.366898,157.864594 149.731384,165.992584 
	C136.582596,179.989487 119.650093,185.616653 100.770203,187.652100 
	C93.241814,187.691757 86.124046,187.874146 78.567703,188.051453 
	C70.014259,186.082199 61.742413,184.603867 53.820118,182.043793 
	C40.877380,177.861389 31.942160,168.014099 22.641371,158.714691 
	C13.835219,149.909851 8.128318,139.473785 4.878696,127.574165 
	C3.554376,122.724693 2.291067,117.858559 1.000000,113.000000 
M513.550354,128.447525 
	C515.501465,132.698059 515.337280,138.929581 522.718933,138.132401 
	C523.144531,138.086441 523.708069,139.317474 524.246399,140.700821 
	C526.013367,145.185303 527.829773,149.651093 529.533569,154.159454 
	C531.294189,158.818253 534.849976,161.534042 539.472839,162.367447 
	C544.517029,163.276794 549.761292,164.138870 554.804565,163.703339 
	C560.307434,163.228104 566.602539,162.769775 568.477905,156.835602 
	C553.774353,150.564133 539.478638,144.466644 524.990540,137.775085 
	C520.984741,133.871353 516.978882,129.967621 512.629456,125.483498 
	C509.255615,120.098557 505.881775,114.713623 502.266113,108.942711 
	C499.903412,109.117065 496.564758,109.363441 493.016846,109.625259 
	C496.842529,114.320732 501.020203,118.279579 503.689575,123.077576 
	C506.014374,127.256187 508.541290,128.901733 513.550354,128.447525 
M129.314774,159.879517 
	C139.128342,152.398712 146.032791,142.750153 150.100128,131.170517 
	C158.470825,107.339378 158.642136,83.072678 152.234192,58.914040 
	C146.222488,36.249229 132.163666,20.491446 109.163795,13.805471 
	C94.362053,9.502666 79.270844,9.033347 64.165024,12.012714 
	C39.040024,16.968197 21.220016,31.035929 12.276780,55.270325 
	C4.213902,77.119133 3.870976,99.573532 8.761495,122.160698 
	C12.350288,138.735764 20.485874,152.513763 34.804142,162.115234 
	C45.299202,169.152954 57.178139,172.305252 69.583862,173.380341 
	C90.622444,175.203552 110.822624,172.823334 129.314774,159.879517 
M295.069366,123.384201 
	C280.212097,131.424271 276.035645,149.949341 286.122284,163.424805 
	C291.337830,170.392578 299.079926,172.604858 307.125031,173.513046 
	C321.305542,175.113846 334.085846,173.208344 339.672791,159.569977 
	C339.757111,159.364090 340.233551,159.318848 340.930450,159.033325 
	C344.014587,166.814850 350.266510,171.057281 358.184692,172.392105 
	C364.372070,173.435150 370.790833,174.032684 377.031067,173.636429 
	C388.894043,172.883102 395.466888,166.972214 398.443024,155.429062 
	C399.395508,151.734818 400.047729,147.928864 400.412689,144.133194 
	C400.574005,142.456055 399.677521,140.677200 399.261261,138.944519 
	C398.480499,140.485214 397.369965,141.948334 396.985748,143.582275 
	C396.112305,147.296768 395.894684,151.180801 394.847931,154.834778 
	C393.851318,158.313766 392.592529,162.265640 387.784424,161.913406 
	C382.932159,161.557938 382.451294,157.523270 381.970856,153.862442 
	C381.647308,151.397263 381.702148,148.876419 381.673859,146.379501 
	C381.473755,128.721191 381.630432,111.050987 381.015778,93.407478 
	C380.417084,76.220078 371.776825,66.290443 355.185120,62.468391 
	C352.761780,61.910149 350.268219,61.557301 347.787323,61.364403 
	C333.114807,60.223564 318.476440,59.969547 304.366455,65.075493 
	C292.511719,69.365341 286.358124,78.399582 286.875854,90.162636 
	C287.436310,102.896294 295.802521,109.541878 309.250366,107.935509 
	C321.216156,106.506165 328.091278,97.001137 325.689697,85.188194 
	C325.116425,82.368355 324.736298,79.442200 320.556061,79.972900 
	C319.838898,80.063942 318.560059,78.906647 318.189911,78.046600 
	C315.527557,71.860504 318.685516,65.766464 325.230530,64.185928 
	C331.573425,62.654198 337.012451,66.081673 337.686981,73.647316 
	C338.982361,88.177361 339.313232,102.793404 340.072815,117.943687 
	C324.415710,118.062843 309.711456,117.677399 295.069366,123.384201 
M213.808594,127.493401 
	C213.888428,117.002472 213.641220,106.495689 214.148849,96.025497 
	C214.575241,87.231087 215.506424,78.335602 220.639816,70.718430 
	C224.441635,65.077072 232.253189,63.091408 237.954193,65.963020 
	C242.608688,68.307495 244.070450,74.063049 242.326187,80.967476 
	C241.605087,83.821854 240.035248,83.984550 237.705902,84.257652 
	C236.268188,84.426224 234.133743,85.467438 233.735107,86.612328 
	C230.342834,96.355545 235.758804,106.962807 245.323364,109.866211 
	C257.225739,113.479286 267.604248,108.658890 270.697845,98.080757 
	C274.818024,83.992508 268.003601,70.026711 254.190735,64.871597 
	C237.787262,58.749641 221.181763,59.394371 204.748734,64.615799 
	C188.122360,69.898659 177.275238,81.248878 172.632950,98.022652 
	C168.645248,112.431320 168.793503,127.019722 173.246124,141.350159 
	C177.087296,153.712677 184.725616,163.195953 196.723892,168.389328 
	C213.472870,175.639038 230.702087,176.162506 247.809708,169.790222 
	C261.532928,164.678574 268.417053,153.599625 271.668396,139.918488 
	C271.905853,138.919342 271.050629,137.660538 270.703400,136.522446 
	C269.718201,137.356110 268.560944,138.060425 267.804718,139.066254 
	C267.246124,139.809250 267.270844,140.967178 266.932251,141.902802 
	C262.957031,152.887665 256.726044,161.993286 244.741821,164.981720 
	C230.844437,168.447220 220.013290,164.677017 216.609390,150.661377 
	C214.862564,143.468796 214.697083,135.892181 213.808594,127.493401 
M531.867676,63.111862 
	C529.905823,64.016365 527.902222,64.840607 525.988586,65.837715 
	C504.630493,76.966438 500.431702,109.962578 519.246460,124.609070 
	C526.100342,129.944534 535.128296,132.658524 543.417236,135.927460 
	C550.664124,138.785477 558.368713,140.468246 565.675842,143.193649 
	C570.828674,145.115540 574.282288,148.880295 573.995178,154.953903 
	C573.718445,160.808304 570.526123,164.950516 565.238037,166.546341 
	C551.551697,170.676483 538.183044,170.243195 526.374939,161.039291 
	C518.598206,154.977676 514.785522,146.209259 511.423706,137.245422 
	C510.870758,135.771011 509.932220,134.441223 509.171875,133.044601 
	C508.725067,133.187103 508.278229,133.329620 507.831421,133.472137 
	C507.831421,146.874313 507.831421,160.276505 507.831421,174.689407 
	C509.503174,173.441010 510.506775,172.942886 511.169983,172.157379 
	C517.659424,164.470749 517.999268,164.384079 527.000977,168.576797 
	C540.251160,174.748322 553.923035,175.455490 567.918762,171.648712 
	C598.919312,163.216721 599.604553,122.833420 583.552002,108.902481 
	C576.676758,102.935944 568.635254,99.684059 560.188354,97.008858 
	C551.645508,94.303284 543.010254,91.836723 534.627563,88.699013 
	C529.963928,86.953369 527.306213,83.120186 527.638977,77.708328 
	C527.957581,72.527405 530.975586,69.353973 535.472961,67.747223 
	C546.402344,63.842525 557.090881,64.392067 567.010132,70.823181 
	C574.251038,75.517784 578.585754,82.610512 582.139954,90.268303 
	C582.952881,92.019699 584.145386,93.594940 585.163208,95.251259 
	C585.520447,95.080437 585.877747,94.909607 586.234985,94.738785 
	C586.234985,83.289780 586.234985,71.840782 586.234985,59.950974 
	C585.091125,60.515606 584.532776,60.616882 584.260559,60.951160 
	C577.848877,68.825256 577.827698,68.896057 568.236938,65.005501 
	C556.585815,60.279160 544.769287,59.163639 531.867676,63.111862 
M429.839264,83.208519 
	C427.589630,75.434425 429.632141,70.299202 437.051178,67.645210 
	C447.761749,63.813778 458.357025,64.386665 468.148102,70.720581 
	C475.713226,75.614510 480.076233,83.075211 483.814850,90.996948 
	C484.531128,92.514702 485.689423,93.823853 486.643799,95.229248 
	C486.931915,95.013489 487.220062,94.797729 487.508179,94.581970 
	C487.508179,83.175636 487.508179,71.769310 487.508179,60.051331 
	C486.443726,60.520393 485.857697,60.598160 485.568329,60.932625 
	C478.865875,68.679199 478.827850,68.793190 469.075409,64.850662 
	C458.571564,60.604347 447.825104,59.349243 436.827148,62.136253 
	C422.507874,65.764908 413.243378,74.737709 409.962219,89.275948 
	C406.899384,102.846832 408.466766,115.835976 420.319031,124.437637 
	C427.529602,129.670624 436.506287,132.625748 444.941742,135.967758 
	C452.184814,138.837357 459.900085,140.502579 467.189636,143.271500 
	C472.351624,145.232254 475.589264,149.129257 475.195862,155.213074 
	C474.814941,161.104279 471.564087,165.042465 466.274048,166.669403 
	C454.390167,170.324203 442.563965,170.109543 431.509613,163.742935 
	C422.020020,158.277512 417.285522,149.121017 413.551575,139.307434 
	C412.740387,137.175430 411.699768,135.130707 410.764801,133.045792 
	C410.313690,133.192902 409.862610,133.340012 409.411499,133.487122 
	C409.411499,146.912506 409.411499,160.337891 409.411499,174.935989 
	C411.185913,173.258850 412.082520,172.582870 412.768341,171.736145 
	C418.417511,164.761810 419.573212,164.391754 427.398346,168.173584 
	C437.092010,172.858505 447.285980,174.701309 457.956390,173.715454 
	C468.117706,172.776627 477.727844,170.100098 485.013031,162.433060 
	C502.916931,143.590759 497.125397,112.185722 473.484863,101.627510 
	C465.047394,97.859222 455.826630,95.850044 446.974731,93.002716 
	C440.823425,91.024071 434.330139,89.647949 429.839264,83.208519 
M601.086548,169.548599 
	C601.961365,170.050659 602.834351,170.987442 603.711182,170.991028 
	C624.209900,171.074692 644.709045,171.082352 665.207581,170.981384 
	C666.181274,170.976608 667.149475,169.844101 668.120239,169.236771 
	C667.080261,168.499161 666.093994,167.238510 664.990051,167.125336 
	C662.071228,166.826126 659.101562,167.023941 655.725464,167.023941 
	C655.725464,164.657532 655.725403,162.862167 655.725403,161.066788 
	C655.725342,130.234955 655.651184,99.402733 655.811890,68.571739 
	C655.833923,64.344238 654.469177,63.107334 650.374878,63.215607 
	C641.048523,63.462250 631.711182,63.293423 622.378296,63.293423 
	C615.077332,63.293419 607.776367,63.293427 600.475342,63.293427 
	C600.180481,63.779018 599.885559,64.264610 599.590698,64.750206 
	C600.588318,65.687943 601.448547,67.123146 602.616089,67.445595 
	C604.322510,67.916862 606.275879,67.793800 608.077087,67.561142 
	C612.140747,67.036270 613.501343,68.446609 613.475708,72.718651 
	C613.296875,102.549461 613.386047,132.381851 613.365601,162.213715 
	C613.364624,163.655655 613.140137,165.097412 612.979980,167.015686 
	C610.692383,167.015686 608.704041,166.801422 606.785645,167.075882 
	C604.864441,167.350754 603.013123,168.113724 601.086548,169.548599 
M264.330139,131.637238 
	C269.032440,131.637238 273.734772,131.637238 279.074829,131.637238 
	C282.590759,124.377167 289.338898,119.687492 297.849274,117.169090 
	C298.387482,116.384300 298.925690,115.599518 299.463928,114.814728 
	C295.481110,111.224487 291.498322,107.634247 286.611786,103.229355 
	C285.670074,106.043915 285.358032,106.785843 285.173187,107.558212 
	C283.044952,116.451073 277.727966,122.400848 268.732666,124.396667 
	C258.950073,126.567162 249.883438,125.429733 242.683655,117.404999 
	C238.243790,112.456398 233.601593,107.689331 228.898041,102.678612 
	C228.898041,118.219673 228.338837,133.674072 229.076752,149.066299 
	C229.656448,161.157944 229.822067,163.115723 244.638138,159.920883 
	C245.896133,159.649612 247.094345,158.949142 248.231659,158.294098 
	C258.187378,152.559921 262.050354,143.060516 264.330139,131.637238 
M654.424194,14.305911 
	C648.068909,5.271776 638.678833,5.140448 629.221191,6.196599 
	C619.725281,7.257023 613.686279,13.765485 612.385559,23.251938 
	C610.972534,33.557507 614.836304,41.931057 622.949524,45.407604 
	C630.471619,48.630817 638.246887,48.802536 645.827576,45.711388 
	C656.867310,41.209724 660.634216,27.965614 654.424194,14.305911 
M601.406311,88.506851 
	C601.406311,95.276672 601.406311,102.046501 601.406311,109.016052 
	C597.824646,109.231735 594.946655,109.405045 592.655273,109.543022 
	C597.849976,117.226669 603.003296,124.849060 608.100464,132.388489 
	C607.796692,132.666794 608.195496,132.472488 608.196472,132.276154 
	C608.276367,116.306847 608.335693,100.337372 608.343750,84.367889 
	C608.344116,83.607826 607.958801,82.232651 607.602417,82.180862 
	C603.248657,81.548172 604.538269,78.215935 604.247620,75.593163 
	C604.127991,74.513206 603.706604,73.466690 603.422424,72.404968 
	C602.750427,72.452942 602.078369,72.500916 601.406372,72.548889 
	C601.406372,77.536232 601.406372,82.523567 601.406311,88.506851 
M573.674988,96.799591 
	C575.657043,97.636276 577.639099,98.472954 580.130432,99.524612 
	C575.955994,84.882866 569.830566,79.712074 557.388000,79.831268 
	C551.559692,79.887100 545.634094,79.959930 541.991089,86.205833 
	C552.835388,89.791130 562.905518,93.120461 573.674988,96.799591 
M464.505005,92.974594 
	C469.966034,95.013145 475.427094,97.051697 481.078949,99.161484 
	C478.603638,87.034683 472.190369,80.475449 461.849762,79.994659 
	C455.151031,79.683197 447.885468,78.712959 443.247253,86.414963 
	C450.473175,88.673790 457.100098,90.745354 464.505005,92.974594 
M608.998108,155.291687 
	C608.998108,148.383453 608.998108,141.475220 608.998108,134.566986 
	C608.572388,134.535294 608.146667,134.503601 607.720947,134.471909 
	C607.181030,143.179031 606.641113,151.886154 606.086670,160.827606 
	C610.079590,161.682526 608.725830,158.328049 608.998108,155.291687 
z"/>
<path fill="#FEFEFE" opacity="1.000000" stroke="none" 
	d="
M415.010345,127.940125 
	C411.531586,127.940125 408.052856,127.940125 404.211090,127.940125 
	C403.973175,130.016815 403.776581,131.732651 403.538269,133.812698 
	C401.045074,133.658325 398.805664,133.519684 396.191589,133.357819 
	C396.191589,126.776657 396.551819,120.615463 396.100281,114.514343 
	C395.537476,106.909241 394.718140,99.272232 393.243988,91.800041 
	C391.823517,84.599670 387.470001,79.029640 382.091125,73.894760 
	C375.563629,67.663330 369.545929,61.343143 360.296631,58.849873 
	C346.984009,55.261280 333.594849,55.663605 320.128845,56.639626 
	C316.332825,56.914757 312.527069,57.638893 308.828156,58.565613 
	C296.065674,61.763107 285.654846,67.803146 282.179840,83.611679 
	C267.711975,63.216145 249.416260,54.243050 225.471527,55.841793 
	C202.226776,57.393791 183.292114,65.319084 170.801315,87.083107 
	C169.354095,80.117523 168.650085,74.043022 166.813553,68.332756 
	C156.196091,35.320396 134.853348,12.964536 100.113113,6.875738 
	C75.272903,2.522084 50.911072,5.412918 29.994358,21.908487 
	C15.002494,33.731537 7.160460,49.693634 3.150275,67.905701 
	C2.650430,70.175720 2.211876,72.459236 1.372461,74.868256 
	C1.000000,50.348732 1.000000,25.697466 1.000000,1.000000 
	C209.687561,1.000000 418.375122,1.000000 627.531372,0.999998 
	C626.525757,1.553437 625.054810,2.115813 623.576782,2.658935 
	C605.478333,9.309496 600.893127,33.162300 615.133606,46.246014 
	C618.999878,49.798187 622.596558,53.643723 627.445923,58.480648 
	C621.134521,58.480648 616.118042,58.480644 611.101562,58.480648 
	C608.105835,58.480652 605.109802,58.509506 602.114502,58.473358 
	C598.384949,58.428349 594.081482,57.466534 594.539429,63.631546 
	C594.554810,63.838718 593.519470,64.123947 592.414429,64.627968 
	C592.195862,61.297813 592.008179,58.438560 591.800171,55.269218 
	C586.514282,55.065147 581.074829,53.045311 578.530334,60.164799 
	C577.347046,63.475578 574.673767,62.431412 572.264954,61.377567 
	C563.151184,57.390335 553.710388,55.463974 543.675354,56.001839 
	C523.848816,57.064510 509.645050,67.981255 503.586548,87.396637 
	C503.149353,87.848885 502.999268,87.942146 502.849213,88.035400 
	C502.831146,82.215584 502.466888,76.369919 502.898956,70.583717 
	C503.280426,65.475922 501.574890,63.451797 496.507629,64.298225 
	C495.720703,64.429672 494.878723,64.231796 493.657379,64.163620 
	C493.436188,61.192413 493.222870,58.326946 492.989624,55.193562 
	C487.536072,55.010147 482.108459,53.280636 479.676056,60.409225 
	C478.659912,63.387264 476.015533,62.514992 473.790588,61.504566 
	C464.075104,57.092453 453.944672,55.262917 443.260986,56.096428 
	C422.614044,57.707241 404.866669,72.765892 403.934082,95.561302 
	C403.450256,107.387474 405.957397,117.964554 414.812134,126.973404 
	C414.850769,127.518562 415.010345,127.940125 415.010345,127.940125 
z"/>
<path fill="#FEFEFE" opacity="1.000000" stroke="none" 
	d="
M669.948242,102.013824 
	C669.948242,90.917885 669.948242,79.821945 669.948242,68.258919 
	C666.611145,68.005730 663.745728,67.788330 660.754272,67.561356 
	C660.208923,62.569973 660.032654,58.770939 664.545654,54.787525 
	C675.057617,45.509140 674.739685,22.974930 661.965637,14.702475 
	C660.622253,13.832487 659.404358,12.587128 658.491577,11.265079 
	C654.558289,5.568362 649.090637,2.578702 642.172241,1.342298 
	C695.912048,1.000000 749.824097,1.000000 804.000000,1.000000 
	C804.000000,36.353790 804.000000,71.708237 803.610901,107.490906 
	C802.778625,107.068604 802.120361,106.264824 801.924011,105.360695 
	C797.487976,84.935501 783.939575,71.258896 766.452271,62.381645 
	C747.781982,52.903896 727.260742,53.686947 707.503540,59.613739 
	C694.830200,63.415501 684.132324,71.117035 677.984558,83.414848 
	C675.047424,89.290085 673.261841,95.740982 670.698547,101.897263 
	C670.277649,101.913536 670.112915,101.963684 669.948242,102.013824 
z"/>
<path fill="#090506" opacity="1.000000" stroke="none" 
	d="
M670.954590,101.931152 
	C673.261841,95.740982 675.047424,89.290085 677.984558,83.414848 
	C684.132324,71.117035 694.830200,63.415501 707.503540,59.613739 
	C727.260742,53.686947 747.781982,52.903896 766.452271,62.381645 
	C783.939575,71.258896 797.487976,84.935501 801.924011,105.360695 
	C802.120361,106.264824 802.778625,107.068604 803.610901,107.959564 
	C804.000000,109.714355 804.000000,111.428719 803.672729,113.682068 
	C803.287537,115.119041 803.229675,116.017014 803.104858,117.312836 
	C803.060669,118.782631 803.083374,119.854584 803.070312,121.379036 
	C803.073547,124.253120 803.112488,126.674713 803.114502,129.510040 
	C803.104736,131.311905 803.131775,132.700012 803.112488,134.432007 
	C803.377441,135.517258 803.688721,136.258621 804.000000,137.000000 
	C804.000000,138.714355 804.000000,140.428711 803.614380,142.510834 
	C802.816101,143.906219 802.257446,144.900253 802.012146,145.966400 
	C796.911438,168.139084 783.474548,181.756516 760.969543,186.180664 
	C756.950256,186.970795 752.988403,188.052765 749.000000,189.000000 
	C743.311951,189.000000 737.623962,189.000000 731.512695,188.604172 
	C726.773438,187.248581 722.279114,186.770142 718.170654,185.249329 
	C695.007019,176.674927 679.216248,160.879471 671.934692,136.633972 
	C671.576416,133.896774 671.178406,131.555145 670.889648,128.778442 
	C670.639587,123.612061 670.027832,118.882385 669.997742,114.149017 
	C669.971863,110.078583 670.610046,106.003929 670.954590,101.931152 
M787.010803,138.324493 
	C790.502380,124.700081 790.848328,110.959183 787.872192,97.249962 
	C784.271362,80.663124 774.717651,68.956535 758.151978,64.084351 
	C741.643494,59.228989 724.951233,59.106857 708.519409,64.610168 
	C692.514343,69.970512 681.674133,80.840309 677.868042,97.312286 
	C675.799561,106.264084 674.951477,115.761108 675.277832,124.950951 
	C676.079041,147.511627 688.218140,164.570953 708.149841,170.155380 
	C717.903137,172.888031 728.501343,173.858856 738.668518,173.613388 
	C764.084045,172.999786 779.254028,161.606247 787.010803,138.324493 
z"/>
<path fill="#FAFAFA" opacity="1.000000" stroke="none" 
	d="
M101.180832,187.794815 
	C119.650093,185.616653 136.582596,179.989487 149.731384,165.992584 
	C157.366898,157.864594 162.634186,148.324112 166.198044,136.529388 
	C167.633377,140.662613 168.267548,143.867905 169.769470,146.595337 
	C181.657639,168.183716 197.352280,184.865143 223.674286,187.486740 
	C224.464081,187.565399 225.224014,187.943909 225.998932,188.591309 
	C184.645767,189.000000 143.291550,189.000000 101.478111,188.793472 
	C101.192497,188.347366 101.246475,188.083328 101.180832,187.794815 
z"/>
<path fill="#FBFBFB" opacity="1.000000" stroke="none" 
	d="
M1.000000,113.468658 
	C2.291067,117.858559 3.554376,122.724693 4.878696,127.574165 
	C8.128318,139.473785 13.835219,149.909851 22.641371,158.714691 
	C31.942160,168.014099 40.877380,177.861389 53.820118,182.043793 
	C61.742413,184.603867 70.014259,186.082199 78.587967,188.287445 
	C79.046806,188.528564 79.000000,189.000000 79.000000,189.000000 
	C53.074066,189.000000 27.148134,189.000000 1.000000,189.000000 
	C1.000000,163.979538 1.000000,138.958435 1.000000,113.468658 
z"/>
<path fill="#F6F6F6" opacity="1.000000" stroke="none" 
	d="
M671.895020,137.029556 
	C679.216248,160.879471 695.007019,176.674927 718.170654,185.249329 
	C722.279114,186.770142 726.773438,187.248581 731.044800,188.604172 
	C676.645752,189.000000 622.291565,189.000000 567.468628,189.000000 
	C572.831726,187.207458 578.723877,185.584991 584.468079,183.545929 
	C587.084290,182.617249 589.759766,181.251389 591.789368,179.403824 
	C595.664612,175.876144 599.969421,175.664795 604.590027,176.386810 
	C604.832642,176.816681 605.108704,177.084824 605.126099,177.368866 
	C605.629028,185.562973 605.624878,185.564804 614.147705,185.565048 
	C635.285095,185.565643 656.423157,185.473618 677.559143,185.645309 
	C681.529114,185.677536 682.717529,184.508728 682.603577,180.527023 
	C682.352966,171.776642 682.566040,171.770538 673.117004,170.872223 
	C673.117004,168.684036 674.050293,165.718536 672.962952,164.272614 
	C666.722046,155.973892 671.173523,146.640091 670.238831,137.476440 
	C671.056458,137.027176 671.475708,137.028366 671.895020,137.029556 
z"/>
<path fill="#F8F8F8" opacity="1.000000" stroke="none" 
	d="
M749.468628,189.000000 
	C752.988403,188.052765 756.950256,186.970795 760.969543,186.180664 
	C783.474548,181.756516 796.911438,168.139084 802.012146,145.966400 
	C802.257446,144.900253 802.816101,143.906219 803.614380,142.939301 
	C804.000000,158.266617 804.000000,173.533218 804.000000,189.000000 
	C785.979614,189.000000 767.958435,189.000000 749.468628,189.000000 
z"/>
<path fill="#F8F8F8" opacity="1.000000" stroke="none" 
	d="
M241.468658,189.000000 
	C241.994919,188.351318 242.949600,187.212906 243.990799,187.127365 
	C259.800446,185.828308 271.925995,178.503479 279.672791,166.043396 
	C284.085693,169.947968 288.544891,173.869431 292.977295,177.820969 
	C299.541595,183.673126 306.981171,187.563705 315.955322,188.579803 
	C291.312439,189.000000 266.624878,189.000000 241.468658,189.000000 
z"/>
<path fill="#F5F5F5" opacity="1.000000" stroke="none" 
	d="
M469.468658,189.000000 
	C469.911743,188.354874 470.795349,187.194153 471.739502,187.142624 
	C484.173615,186.464066 493.946106,180.819305 502.263336,170.354492 
	C502.476562,173.668945 502.625824,175.989578 502.805359,178.780945 
	C505.742004,178.780945 508.485138,178.780945 511.337646,178.780945 
	C511.873505,182.219681 512.338135,185.201218 512.901367,188.591385 
	C498.645782,189.000000 484.291534,189.000000 469.468658,189.000000 
z"/>
<path fill="#F2F2F2" opacity="1.000000" stroke="none" 
	d="
M329.468658,189.000000 
	C329.764984,188.338593 330.503601,187.138580 331.299072,187.099640 
	C338.694763,186.737656 344.485687,183.276031 349.563751,177.663696 
	C356.559631,184.004791 364.617523,187.532043 373.932770,188.585510 
	C359.312439,189.000000 344.624878,189.000000 329.468658,189.000000 
z"/>
<path fill="#EFEFEF" opacity="1.000000" stroke="none" 
	d="
M423.468658,189.000000 
	C423.008575,188.835159 422.953735,188.624756 423.034760,188.511963 
	C429.159760,179.985001 429.111053,180.115799 438.999390,183.879532 
	C444.031677,185.794968 449.279388,187.144394 454.714844,188.874832 
	C444.645782,189.000000 434.291534,189.000000 423.468658,189.000000 
z"/>
<path fill="#F2F2F2" opacity="1.000000" stroke="none" 
	d="
M388.468658,189.000000 
	C388.807556,188.340607 389.521881,187.479904 390.438263,187.055573 
	C395.266663,184.819763 400.105103,182.594238 405.025818,180.574097 
	C407.337128,179.625214 409.840973,179.145340 412.652191,178.339844 
	C413.119110,182.141449 413.490112,185.161942 413.930542,188.591217 
	C405.645782,189.000000 397.291534,189.000000 388.468658,189.000000 
z"/>
<path fill="#F4F4F4" opacity="1.000000" stroke="none" 
	d="
M521.468628,189.000000 
	C521.666504,188.333755 522.389954,187.714951 522.990662,186.993912 
	C528.859009,179.950424 528.765442,180.159012 536.505371,183.339233 
	C541.686035,185.467911 547.159485,186.883865 552.750977,188.809372 
	C542.645752,189.000000 532.291565,189.000000 521.468628,189.000000 
z"/>
<path fill="#BABABA" opacity="1.000000" stroke="none" 
	d="
M79.468582,189.000000 
	C79.000000,189.000000 79.046806,188.528564 79.026543,188.292557 
	C86.124046,187.874146 93.241814,187.691757 100.770203,187.652100 
	C101.246475,188.083328 101.192497,188.347366 101.009453,188.793472 
	C93.979050,189.000000 86.958107,189.000000 79.468582,189.000000 
z"/>
<path fill="#2F2F2F" opacity="1.000000" stroke="none" 
	d="
M803.151428,129.096298 
	C803.112488,126.674713 803.073547,124.253120 803.292480,121.408417 
	C803.550293,120.985298 804.000000,121.000000 804.000000,121.000000 
	C804.000000,123.370552 804.000000,125.741112 803.787231,128.574860 
	C803.574524,129.038071 803.151428,129.096298 803.151428,129.096298 
z"/>
<path fill="#505050" opacity="1.000000" stroke="none" 
	d="
M803.114502,129.510040 
	C803.151428,129.096298 803.574524,129.038071 803.787231,129.019043 
	C804.000000,130.388885 804.000000,131.777786 803.789551,133.603333 
	C803.579041,134.040009 803.158875,134.088135 803.158813,134.088135 
	C803.131775,132.700012 803.104736,131.311905 803.114502,129.510040 
z"/>
<path fill="#515151" opacity="1.000000" stroke="none" 
	d="
M804.000000,120.600052 
	C804.000000,121.000000 803.550293,120.985298 803.328186,120.955917 
	C803.083374,119.854584 803.060669,118.782631 803.311646,117.334152 
	C803.585449,116.957619 804.000000,117.000000 804.000000,117.000000 
	C804.000000,118.066704 804.000000,119.133400 804.000000,120.600052 
z"/>
<path fill="#818181" opacity="1.000000" stroke="none" 
	d="
M803.112549,134.432007 
	C803.158875,134.088135 803.579041,134.040009 803.789551,134.020004 
	C804.000000,134.750000 804.000000,135.500000 804.000000,136.625000 
	C803.688721,136.258621 803.377441,135.517258 803.112549,134.432007 
z"/>
<path fill="#7D7D7D" opacity="1.000000" stroke="none" 
	d="
M804.000000,116.625000 
	C804.000000,117.000000 803.585449,116.957619 803.378662,116.936302 
	C803.229675,116.017014 803.287537,115.119041 803.672729,114.110535 
	C804.000000,114.750000 804.000000,115.500000 804.000000,116.625000 
z"/>
<path fill="#FB0154" opacity="1.000000" stroke="none" 
	d="
M129.022308,160.087677 
	C110.822624,172.823334 90.622444,175.203552 69.583862,173.380341 
	C57.178139,172.305252 45.299202,169.152954 34.804142,162.115234 
	C20.485874,152.513763 12.350288,138.735764 8.761495,122.160698 
	C3.870976,99.573532 4.213902,77.119133 12.276780,55.270325 
	C21.220016,31.035929 39.040024,16.968197 64.165024,12.012714 
	C79.270844,9.033347 94.362053,9.502666 109.163795,13.805471 
	C132.163666,20.491446 146.222488,36.249229 152.234192,58.914040 
	C158.642136,83.072678 158.470825,107.339378 150.100128,131.170517 
	C146.032791,142.750153 139.128342,152.398712 129.022308,160.087677 
M52.100273,87.499992 
	C52.124825,98.153381 51.882446,108.815880 52.245815,119.457695 
	C52.642723,131.081573 53.193230,142.756348 57.706890,153.751099 
	C62.128769,164.522263 69.879013,169.442032 81.959167,169.211075 
	C93.560051,168.989273 100.765106,164.150665 104.720947,153.228653 
	C106.346794,148.739685 107.833458,143.925400 107.971123,139.217789 
	C108.758583,112.289497 109.640739,85.343300 109.356628,58.415146 
	C109.251663,48.466274 106.602524,38.410542 104.090881,28.667219 
	C102.384117,22.046215 97.024910,17.867561 90.304520,16.115536 
	C71.577858,11.233454 57.752670,19.539989 55.163582,38.792469 
	C53.044853,54.547363 53.041473,70.586731 52.100273,87.499992 
z"/>
<path fill="#F90154" opacity="1.000000" stroke="none" 
	d="
M295.416718,123.228905 
	C309.711456,117.677399 324.415710,118.062843 340.072815,117.943687 
	C339.313232,102.793404 338.982361,88.177361 337.686981,73.647316 
	C337.012451,66.081673 331.573425,62.654198 325.230530,64.185928 
	C318.685516,65.766464 315.527557,71.860504 318.189911,78.046600 
	C318.560059,78.906647 319.838898,80.063942 320.556061,79.972900 
	C324.736298,79.442200 325.116425,82.368355 325.689697,85.188194 
	C328.091278,97.001137 321.216156,106.506165 309.250366,107.935509 
	C295.802521,109.541878 287.436310,102.896294 286.875854,90.162636 
	C286.358124,78.399582 292.511719,69.365341 304.366455,65.075493 
	C318.476440,59.969547 333.114807,60.223564 347.787323,61.364403 
	C350.268219,61.557301 352.761780,61.910149 355.185120,62.468391 
	C371.776825,66.290443 380.417084,76.220078 381.015778,93.407478 
	C381.630432,111.050987 381.473755,128.721191 381.673859,146.379501 
	C381.702148,148.876419 381.647308,151.397263 381.970856,153.862442 
	C382.451294,157.523270 382.932159,161.557938 387.784424,161.913406 
	C392.592529,162.265640 393.851318,158.313766 394.847931,154.834778 
	C395.894684,151.180801 396.112305,147.296768 396.985748,143.582275 
	C397.369965,141.948334 398.480499,140.485214 399.261261,138.944519 
	C399.677521,140.677200 400.574005,142.456055 400.412689,144.133194 
	C400.047729,147.928864 399.395508,151.734818 398.443024,155.429062 
	C395.466888,166.972214 388.894043,172.883102 377.031067,173.636429 
	C370.790833,174.032684 364.372070,173.435150 358.184692,172.392105 
	C350.266510,171.057281 344.014587,166.814850 340.930450,159.033325 
	C340.233551,159.318848 339.757111,159.364090 339.672791,159.569977 
	C334.085846,173.208344 321.305542,175.113846 307.125031,173.513046 
	C299.079926,172.604858 291.337830,170.392578 286.122284,163.424805 
	C276.035645,149.949341 280.212097,131.424271 295.416718,123.228905 
M328.789948,125.256790 
	C327.503143,127.913979 325.292542,130.506683 325.101715,133.240387 
	C324.514893,141.647156 324.427032,150.119354 324.779907,158.539520 
	C324.867828,160.637527 327.337982,164.293991 328.731293,164.302597 
	C331.001160,164.316650 333.417999,162.087296 335.504883,160.460892 
	C336.451630,159.723022 336.927887,158.216278 337.326019,156.965500 
	C340.992401,145.447098 338.697510,133.701569 339.630859,120.465332 
	C335.233337,122.288719 332.288452,123.509796 328.789948,125.256790 
z"/>
<path fill="#F90154" opacity="1.000000" stroke="none" 
	d="
M213.812775,127.991257 
	C214.697083,135.892181 214.862564,143.468796 216.609390,150.661377 
	C220.013290,164.677017 230.844437,168.447220 244.741821,164.981720 
	C256.726044,161.993286 262.957031,152.887665 266.932251,141.902802 
	C267.270844,140.967178 267.246124,139.809250 267.804718,139.066254 
	C268.560944,138.060425 269.718201,137.356110 270.703400,136.522446 
	C271.050629,137.660538 271.905853,138.919342 271.668396,139.918488 
	C268.417053,153.599625 261.532928,164.678574 247.809708,169.790222 
	C230.702087,176.162506 213.472870,175.639038 196.723892,168.389328 
	C184.725616,163.195953 177.087296,153.712677 173.246124,141.350159 
	C168.793503,127.019722 168.645248,112.431320 172.632950,98.022652 
	C177.275238,81.248878 188.122360,69.898659 204.748734,64.615799 
	C221.181763,59.394371 237.787262,58.749641 254.190735,64.871597 
	C268.003601,70.026711 274.818024,83.992508 270.697845,98.080757 
	C267.604248,108.658890 257.225739,113.479286 245.323364,109.866211 
	C235.758804,106.962807 230.342834,96.355545 233.735107,86.612328 
	C234.133743,85.467438 236.268188,84.426224 237.705902,84.257652 
	C240.035248,83.984550 241.605087,83.821854 242.326187,80.967476 
	C244.070450,74.063049 242.608688,68.307495 237.954193,65.963020 
	C232.253189,63.091408 224.441635,65.077072 220.639816,70.718430 
	C215.506424,78.335602 214.575241,87.231087 214.148849,96.025497 
	C213.641220,106.495689 213.888428,117.002472 213.812775,127.991257 
z"/>
<path fill="#F80153" opacity="1.000000" stroke="none" 
	d="
M532.258423,63.036194 
	C544.769287,59.163639 556.585815,60.279160 568.236938,65.005501 
	C577.827698,68.896057 577.848877,68.825256 584.260559,60.951160 
	C584.532776,60.616882 585.091125,60.515606 586.234985,59.950974 
	C586.234985,71.840782 586.234985,83.289780 586.234985,94.738785 
	C585.877747,94.909607 585.520447,95.080437 585.163208,95.251259 
	C584.145386,93.594940 582.952881,92.019699 582.139954,90.268303 
	C578.585754,82.610512 574.251038,75.517784 567.010132,70.823181 
	C557.090881,64.392067 546.402344,63.842525 535.472961,67.747223 
	C530.975586,69.353973 527.957581,72.527405 527.638977,77.708328 
	C527.306213,83.120186 529.963928,86.953369 534.627563,88.699013 
	C543.010254,91.836723 551.645508,94.303284 560.188354,97.008858 
	C568.635254,99.684059 576.676758,102.935944 583.552002,108.902481 
	C599.604553,122.833420 598.919312,163.216721 567.918762,171.648712 
	C553.923035,175.455490 540.251160,174.748322 527.000977,168.576797 
	C517.999268,164.384079 517.659424,164.470749 511.169983,172.157379 
	C510.506775,172.942886 509.503174,173.441010 507.831421,174.689407 
	C507.831421,160.276505 507.831421,146.874313 507.831421,133.472137 
	C508.278229,133.329620 508.725067,133.187103 509.171875,133.044601 
	C509.932220,134.441223 510.870758,135.771011 511.423706,137.245422 
	C514.785522,146.209259 518.598206,154.977676 526.374939,161.039291 
	C538.183044,170.243195 551.551697,170.676483 565.238037,166.546341 
	C570.526123,164.950516 573.718445,160.808304 573.995178,154.953903 
	C574.282288,148.880295 570.828674,145.115540 565.675842,143.193649 
	C558.368713,140.468246 550.664124,138.785477 543.417236,135.927460 
	C535.128296,132.658524 526.100342,129.944534 519.246460,124.609070 
	C500.431702,109.962578 504.630493,76.966438 525.988586,65.837715 
	C527.902222,64.840607 529.905823,64.016365 532.258423,63.036194 
z"/>
<path fill="#F90154" opacity="1.000000" stroke="none" 
	d="
M430.037262,83.546158 
	C434.330139,89.647949 440.823425,91.024071 446.974731,93.002716 
	C455.826630,95.850044 465.047394,97.859222 473.484863,101.627510 
	C497.125397,112.185722 502.916931,143.590759 485.013031,162.433060 
	C477.727844,170.100098 468.117706,172.776627 457.956390,173.715454 
	C447.285980,174.701309 437.092010,172.858505 427.398346,168.173584 
	C419.573212,164.391754 418.417511,164.761810 412.768341,171.736145 
	C412.082520,172.582870 411.185913,173.258850 409.411499,174.935989 
	C409.411499,160.337891 409.411499,146.912506 409.411499,133.487122 
	C409.862610,133.340012 410.313690,133.192902 410.764801,133.045792 
	C411.699768,135.130707 412.740387,137.175430 413.551575,139.307434 
	C417.285522,149.121017 422.020020,158.277512 431.509613,163.742935 
	C442.563965,170.109543 454.390167,170.324203 466.274048,166.669403 
	C471.564087,165.042465 474.814941,161.104279 475.195862,155.213074 
	C475.589264,149.129257 472.351624,145.232254 467.189636,143.271500 
	C459.900085,140.502579 452.184814,138.837357 444.941742,135.967758 
	C436.506287,132.625748 427.529602,129.670624 420.319031,124.437637 
	C408.466766,115.835976 406.899384,102.846832 409.962219,89.275948 
	C413.243378,74.737709 422.507874,65.764908 436.827148,62.136253 
	C447.825104,59.349243 458.571564,60.604347 469.075409,64.850662 
	C478.827850,68.793190 478.865875,68.679199 485.568329,60.932625 
	C485.857697,60.598160 486.443726,60.520393 487.508179,60.051331 
	C487.508179,71.769310 487.508179,83.175636 487.508179,94.581970 
	C487.220062,94.797729 486.931915,95.013489 486.643799,95.229248 
	C485.689423,93.823853 484.531128,92.514702 483.814850,90.996948 
	C480.076233,83.075211 475.713226,75.614510 468.148102,70.720581 
	C458.357025,64.386665 447.761749,63.813778 437.051178,67.645210 
	C429.632141,70.299202 427.589630,75.434425 430.037262,83.546158 
z"/>
<path fill="#F70153" opacity="1.000000" stroke="none" 
	d="
M601.108887,169.105682 
	C603.013123,168.113724 604.864441,167.350754 606.785645,167.075882 
	C608.704041,166.801422 610.692383,167.015686 612.979980,167.015686 
	C613.140137,165.097412 613.364624,163.655655 613.365601,162.213715 
	C613.386047,132.381851 613.296875,102.549461 613.475708,72.718651 
	C613.501343,68.446609 612.140747,67.036270 608.077087,67.561142 
	C606.275879,67.793800 604.322510,67.916862 602.616089,67.445595 
	C601.448547,67.123146 600.588318,65.687943 599.590698,64.750206 
	C599.885559,64.264610 600.180481,63.779018 600.475342,63.293427 
	C607.776367,63.293427 615.077332,63.293419 622.378296,63.293423 
	C631.711182,63.293423 641.048523,63.462250 650.374878,63.215607 
	C654.469177,63.107334 655.833923,64.344238 655.811890,68.571739 
	C655.651184,99.402733 655.725342,130.234955 655.725403,161.066788 
	C655.725403,162.862167 655.725464,164.657532 655.725464,167.023941 
	C659.101562,167.023941 662.071228,166.826126 664.990051,167.125336 
	C666.093994,167.238510 667.080261,168.499161 668.120239,169.236771 
	C667.149475,169.844101 666.181274,170.976608 665.207581,170.981384 
	C644.709045,171.082352 624.209900,171.074692 603.711182,170.991028 
	C602.834351,170.987442 601.961365,170.050659 601.108887,169.105682 
z"/>
<path fill="#F8F8F8" opacity="1.000000" stroke="none" 
	d="
M264.222900,132.050385 
	C262.050354,143.060516 258.187378,152.559921 248.231659,158.294098 
	C247.094345,158.949142 245.896133,159.649612 244.638138,159.920883 
	C229.822067,163.115723 229.656448,161.157944 229.076752,149.066299 
	C228.338837,133.674072 228.898041,118.219673 228.898041,102.678612 
	C233.601593,107.689331 238.243790,112.456398 242.683655,117.404999 
	C249.883438,125.429733 258.950073,126.567162 268.732666,124.396667 
	C277.727966,122.400848 283.044952,116.451073 285.173187,107.558212 
	C285.358032,106.785843 285.670074,106.043915 286.611786,103.229355 
	C291.498322,107.634247 295.481110,111.224487 299.463928,114.814728 
	C298.925690,115.599518 298.387482,116.384300 297.849274,117.169090 
	C289.338898,119.687492 282.590759,124.377167 279.074829,131.637238 
	C273.734772,131.637238 269.032440,131.637238 264.222900,132.050385 
z"/>
<path fill="#FA0154" opacity="1.000000" stroke="none" 
	d="
M654.623413,14.629543 
	C660.634216,27.965614 656.867310,41.209724 645.827576,45.711388 
	C638.246887,48.802536 630.471619,48.630817 622.949524,45.407604 
	C614.836304,41.931057 610.972534,33.557507 612.385559,23.251938 
	C613.686279,13.765485 619.725281,7.257023 629.221191,6.196599 
	C638.678833,5.140448 648.068909,5.271776 654.623413,14.629543 
z"/>
<path fill="#F4F4F4" opacity="1.000000" stroke="none" 
	d="
M525.182983,138.369141 
	C539.478638,144.466644 553.774353,150.564133 568.477905,156.835602 
	C566.602539,162.769775 560.307434,163.228104 554.804565,163.703339 
	C549.761292,164.138870 544.517029,163.276794 539.472839,162.367447 
	C534.849976,161.534042 531.294189,158.818253 529.533569,154.159454 
	C527.829773,149.651093 526.013367,145.185303 524.494141,140.137222 
	C524.888977,139.172119 525.035950,138.770630 525.182983,138.369141 
z"/>
<path fill="#F4F4F4" opacity="1.000000" stroke="none" 
	d="
M428.124542,139.628311 
	C441.899078,145.210892 455.673615,150.793457 469.819641,156.526596 
	C469.338501,159.737259 466.300110,161.371078 462.932465,162.431091 
	C455.233795,164.854355 447.519226,164.104385 439.844513,162.158646 
	C434.444000,160.789474 431.640045,156.863754 429.779724,151.979996 
	C428.598022,148.877899 427.349548,145.801254 426.409729,142.193100 
	C427.167114,140.991440 427.645813,140.309875 428.124542,139.628311 
z"/>
<path fill="#EBEBEB" opacity="1.000000" stroke="none" 
	d="
M601.406372,88.008881 
	C601.406372,82.523567 601.406372,77.536232 601.406372,72.548889 
	C602.078369,72.500916 602.750427,72.452942 603.422424,72.404968 
	C603.706604,73.466690 604.127991,74.513206 604.247620,75.593163 
	C604.538269,78.215935 603.248657,81.548172 607.602417,82.180862 
	C607.958801,82.232651 608.344116,83.607826 608.343750,84.367889 
	C608.335693,100.337372 608.276367,116.306847 608.196472,132.276154 
	C608.195496,132.472488 607.796692,132.666794 608.100464,132.388489 
	C603.003296,124.849060 597.849976,117.226669 592.655273,109.543022 
	C594.946655,109.405045 597.824646,109.231735 601.406311,109.016052 
	C601.406311,102.046501 601.406311,95.276672 601.406372,88.008881 
z"/>
<path fill="#F4F4F4" opacity="1.000000" stroke="none" 
	d="
M573.325317,96.624687 
	C562.905518,93.120461 552.835388,89.791130 541.991089,86.205833 
	C545.634094,79.959930 551.559692,79.887100 557.388000,79.831268 
	C569.830566,79.712074 575.955994,84.882866 580.130432,99.524612 
	C577.639099,98.472954 575.657043,97.636276 573.325317,96.624687 
z"/>
<path fill="#F4F4F4" opacity="1.000000" stroke="none" 
	d="
M464.115997,92.895760 
	C457.100098,90.745354 450.473175,88.673790 443.247253,86.414963 
	C447.885468,78.712959 455.151031,79.683197 461.849762,79.994659 
	C472.190369,80.475449 478.603638,87.034683 481.078949,99.161484 
	C475.427094,97.051697 469.966034,95.013145 464.115997,92.895760 
z"/>
<path fill="#E5E5E5" opacity="1.000000" stroke="none" 
	d="
M513.008057,127.958740 
	C508.541290,128.901733 506.014374,127.256187 503.689575,123.077576 
	C501.020203,118.279579 496.842529,114.320732 493.016846,109.625259 
	C496.564758,109.363441 499.903412,109.117065 502.266113,108.942711 
	C505.881775,114.713623 509.255615,120.098557 512.796082,126.089630 
	C512.977783,127.116760 512.992920,127.537750 513.008057,127.958740 
z"/>
<path fill="#D5D5D5" opacity="1.000000" stroke="none" 
	d="
M427.994873,139.336472 
	C427.645813,140.309875 427.167114,140.991440 426.408691,141.819870 
	C425.027557,139.309402 423.959106,136.885849 420.170288,137.318085 
	C419.242371,137.423965 417.774109,135.552277 417.082397,134.298416 
	C416.133453,132.578293 415.688141,130.580307 415.018677,128.320755 
	C415.010345,127.940125 414.850769,127.518562 414.905518,127.299934 
	C419.261932,131.069077 423.563568,135.056854 427.994873,139.336472 
z"/>
<path fill="#C8C8C8" opacity="1.000000" stroke="none" 
	d="
M513.279175,128.203125 
	C512.992920,127.537750 512.977783,127.116760 512.967896,126.379822 
	C516.978882,129.967621 520.984741,133.871353 525.086792,138.072113 
	C525.035950,138.770630 524.888977,139.172119 524.474731,139.763916 
	C523.708069,139.317474 523.144531,138.086441 522.718933,138.132401 
	C515.337280,138.929581 515.501465,132.698059 513.279175,128.203125 
z"/>
<path fill="#626262" opacity="1.000000" stroke="none" 
	d="
M608.998474,155.758713 
	C608.725830,158.328049 610.079590,161.682526 606.086670,160.827606 
	C606.641113,151.886154 607.181030,143.179031 607.720947,134.471909 
	C608.146667,134.503601 608.572388,134.535294 608.998108,134.566986 
	C608.998108,141.475220 608.998108,148.383453 608.998474,155.758713 
z"/>
<path fill="#515151" opacity="1.000000" stroke="none" 
	d="
M670.698486,101.897263 
	C670.610046,106.003929 669.971863,110.078583 669.997742,114.149017 
	C670.027832,118.882385 670.639587,123.612061 670.702881,128.845367 
	C670.177124,129.535187 669.924866,129.573013 669.649963,129.460861 
	C669.527161,120.482979 669.404297,111.505089 669.614868,102.270515 
	C670.112915,101.963684 670.277649,101.913536 670.698486,101.897263 
z"/>
<path fill="#575757" opacity="1.000000" stroke="none" 
	d="
M502.540253,88.312912 
	C502.999268,87.942146 503.149353,87.848885 503.563782,87.774673 
	C503.372650,93.953415 502.917175,100.113113 502.461731,106.272804 
	C502.384918,106.276665 502.308105,106.280533 502.231293,106.284393 
	C502.231293,100.386406 502.231293,94.488411 502.540253,88.312912 
z"/>
<path fill="#C6C6C6" opacity="1.000000" stroke="none" 
	d="
M669.652832,129.837555 
	C669.924866,129.573013 670.177124,129.535187 670.593628,129.280457 
	C671.178406,131.555145 671.576416,133.896774 671.934692,136.633972 
	C671.475708,137.028366 671.056458,137.027176 670.322388,137.014374 
	C669.890320,134.739929 669.773071,132.477097 669.652832,129.837555 
z"/>
<path fill="#FA0154" opacity="1.000000" stroke="none" 
	d="
M786.943726,138.727585 
	C779.254028,161.606247 764.084045,172.999786 738.668518,173.613388 
	C728.501343,173.858856 717.903137,172.888031 708.149841,170.155380 
	C688.218140,164.570953 676.079041,147.511627 675.277832,124.950951 
	C674.951477,115.761108 675.799561,106.264084 677.868042,97.312286 
	C681.674133,80.840309 692.514343,69.970512 708.519409,64.610168 
	C724.951233,59.106857 741.643494,59.228989 758.151978,64.084351 
	C774.717651,68.956535 784.271362,80.663124 787.872192,97.249962 
	C790.848328,110.959183 790.502380,124.700081 786.943726,138.727585 
M718.237610,133.461441 
	C718.544250,139.108368 718.408020,144.825516 719.289001,150.381378 
	C720.080444,155.372742 721.121277,160.689133 723.596985,164.968277 
	C727.926819,172.452026 738.949524,171.437881 742.634521,163.581360 
	C743.878845,160.928238 744.897644,157.891098 744.960571,155.006363 
	C745.443054,132.895004 745.928406,110.776276 745.788940,88.663765 
	C745.752136,82.829239 743.928833,76.887825 742.188232,71.222130 
	C740.947998,67.185234 737.675049,64.877899 733.036011,64.820457 
	C728.141968,64.759865 724.589661,66.809982 722.637512,71.129570 
	C721.355164,73.967072 720.117493,77.091530 719.983154,80.137024 
	C719.214172,97.573776 718.781738,115.025368 718.237610,133.461441 
z"/>
<path fill="#090406" opacity="1.000000" stroke="none" 
	d="
M52.100296,86.999985 
	C53.041473,70.586731 53.044853,54.547363 55.163582,38.792469 
	C57.752670,19.539989 71.577858,11.233454 90.304520,16.115536 
	C97.024910,17.867561 102.384117,22.046215 104.090881,28.667219 
	C106.602524,38.410542 109.251663,48.466274 109.356628,58.415146 
	C109.640739,85.343300 108.758583,112.289497 107.971123,139.217789 
	C107.833458,143.925400 106.346794,148.739685 104.720947,153.228653 
	C100.765106,164.150665 93.560051,168.989273 81.959167,169.211075 
	C69.879013,169.442032 62.128769,164.522263 57.706890,153.751099 
	C53.193230,142.756348 52.642723,131.081573 52.245815,119.457695 
	C51.882446,108.815880 52.124825,98.153381 52.100296,86.999985 
M66.255798,95.528015 
	C66.610428,109.845482 66.722649,124.174957 67.431458,138.474869 
	C67.742569,144.751572 68.950943,151.044250 70.415291,157.171112 
	C70.939766,159.365524 73.040291,162.122330 75.064529,162.861526 
	C85.503845,166.673752 95.380577,162.363708 99.670738,152.121597 
	C101.378227,148.045227 102.643593,143.483719 102.783867,139.100616 
	C103.566086,114.658951 104.316216,90.203690 104.277672,65.754326 
	C104.261536,55.518421 102.480904,45.256073 101.003815,35.078121 
	C100.731796,33.203758 98.333458,30.645042 96.459564,30.157034 
	C84.178787,26.958826 73.328827,33.543301 70.027367,45.823795 
	C69.338165,48.387428 68.690971,51.023228 68.527229,53.657032 
	C67.680344,67.279068 66.996788,80.911255 66.255798,95.528015 
z"/>
<path fill="#040001" opacity="1.000000" stroke="none" 
	d="
M329.066772,124.993828 
	C332.288452,123.509796 335.233337,122.288719 339.630859,120.465332 
	C338.697510,133.701569 340.992401,145.447098 337.326019,156.965500 
	C336.927887,158.216278 336.451630,159.723022 335.504883,160.460892 
	C333.417999,162.087296 331.001160,164.316650 328.731293,164.302597 
	C327.337982,164.293991 324.867828,160.637527 324.779907,158.539520 
	C324.427032,150.119354 324.514893,141.647156 325.101715,133.240387 
	C325.292542,130.506683 327.503143,127.913979 329.066772,124.993828 
z"/>
<path fill="#090406" opacity="1.000000" stroke="none" 
	d="
M718.236328,132.966675 
	C718.781738,115.025368 719.214172,97.573776 719.983154,80.137024 
	C720.117493,77.091530 721.355164,73.967072 722.637512,71.129570 
	C724.589661,66.809982 728.141968,64.759865 733.036011,64.820457 
	C737.675049,64.877899 740.947998,67.185234 742.188232,71.222130 
	C743.928833,76.887825 745.752136,82.829239 745.788940,88.663765 
	C745.928406,110.776276 745.443054,132.895004 744.960571,155.006363 
	C744.897644,157.891098 743.878845,160.928238 742.634521,163.581360 
	C738.949524,171.437881 727.926819,172.452026 723.596985,164.968277 
	C721.121277,160.689133 720.080444,155.372742 719.289001,150.381378 
	C718.408020,144.825516 718.544250,139.108368 718.236328,132.966675 
M740.969421,139.486130 
	C740.916565,119.788048 740.863770,100.089973 740.810974,80.391891 
	C740.013794,80.216263 739.216614,80.040634 738.419434,79.865005 
	C737.166138,82.382408 735.513245,84.787071 734.762817,87.446396 
	C733.868530,90.615601 733.373413,94.001007 733.354126,97.296555 
	C733.236267,117.430916 733.281921,137.566406 733.337769,157.701340 
	C733.343567,159.790405 733.773987,161.878281 734.007446,163.966705 
	C734.550720,164.165619 735.093994,164.364532 735.637268,164.563446 
	C736.893372,162.321228 738.863831,160.198593 739.263184,157.812988 
	C740.219360,152.100906 740.436279,146.265060 740.969421,139.486130 
z"/>
<path fill="#FBFBFB" opacity="1.000000" stroke="none" 
	d="
M66.256042,95.033958 
	C66.996788,80.911255 67.680344,67.279068 68.527229,53.657032 
	C68.690971,51.023228 69.338165,48.387428 70.027367,45.823795 
	C73.328827,33.543301 84.178787,26.958826 96.459564,30.157034 
	C98.333458,30.645042 100.731796,33.203758 101.003815,35.078121 
	C102.480904,45.256073 104.261536,55.518421 104.277672,65.754326 
	C104.316216,90.203690 103.566086,114.658951 102.783867,139.100616 
	C102.643593,143.483719 101.378227,148.045227 99.670738,152.121597 
	C95.380577,162.363708 85.503845,166.673752 75.064529,162.861526 
	C73.040291,162.122330 70.939766,159.365524 70.415291,157.171112 
	C68.950943,151.044250 67.742569,144.751572 67.431458,138.474869 
	C66.722649,124.174957 66.610428,109.845482 66.256042,95.033958 
z"/>
<path fill="#F0F0F0" opacity="1.000000" stroke="none" 
	d="
M740.960571,139.982651 
	C740.436279,146.265060 740.219360,152.100906 739.263184,157.812988 
	C738.863831,160.198593 736.893372,162.321228 735.637268,164.563446 
	C735.093994,164.364532 734.550720,164.165619 734.007446,163.966705 
	C733.773987,161.878281 733.343567,159.790405 733.337769,157.701340 
	C733.281921,137.566406 733.236267,117.430916 733.354126,97.296555 
	C733.373413,94.001007 733.868530,90.615601 734.762817,87.446396 
	C735.513245,84.787071 737.166138,82.382408 738.419434,79.865005 
	C739.216614,80.040634 740.013794,80.216263 740.810974,80.391891 
	C740.863770,100.089973 740.916565,119.788048 740.960571,139.982651 
z"/>
</svg>